<svg xmlns="http://www.w3.org/2000/svg" viewBox="0 0 720 600" font-family="Arial, sans-serif">
  <defs>
    <marker id="arr" viewBox="0 0 10 10" refX="8" refY="5" markerWidth="6" markerHeight="6" orient="auto">
      <path d="M2 1L8 5L2 9" fill="none" stroke="#525252" stroke-width="1.5" stroke-linecap="round" stroke-linejoin="round"/>
    </marker>
    <style>
      .title { font-size: 18px; font-weight: 600; fill: #161616; }
      .h { font-size: 14px; font-weight: 600; fill: #161616; }
      .lbl { font-size: 12px; fill: #525252; }
      .ip { font-size: 11px; fill: #0F62FE; font-family: 'Courier New', monospace; }
      .box { fill: #F4F4F4; stroke: #C6C6C6; stroke-width: 1; }
      .fw { fill: #FFF1E6; stroke: #F17800; stroke-width: 1.5; }
      .siem { fill: #E5F6FF; stroke: #0F62FE; stroke-width: 1; }
      .ep { fill: #E8DAEF; stroke: #6929C4; stroke-width: 1; }
      .net { fill: none; stroke: #24A148; stroke-width: 1.5; stroke-dasharray: 6 4; }
      .arrow { stroke: #525252; stroke-width: 1.5; fill: none; }
    </style>
  </defs>

  <text x="360" y="30" text-anchor="middle" class="title">SOC Detection Engineering Lab — Phase 4 Topology</text>

  <!-- Internet -->
  <rect x="290" y="55" width="140" height="40" rx="6" class="box"/>
  <text x="360" y="80" text-anchor="middle" class="h">Internet</text>

  <line x1="360" y1="95" x2="360" y2="115" class="arrow" marker-end="url(#arr)"/>

  <!-- VirtualBox NAT -->
  <rect x="270" y="115" width="180" height="45" rx="6" class="box"/>
  <text x="360" y="135" text-anchor="middle" class="h">VirtualBox NAT</text>
  <text x="360" y="152" text-anchor="middle" class="ip">Gateway 10.0.2.2</text>

  <line x1="360" y1="160" x2="360" y2="185" class="arrow" marker-end="url(#arr)"/>
  <text x="365" y="177" class="lbl">em0 (WAN)</text>

  <!-- pfSense -->
  <rect x="240" y="185" width="240" height="60" rx="8" class="fw"/>
  <text x="360" y="207" text-anchor="middle" class="h">pfSense 2.7.2 firewall</text>
  <text x="360" y="223" text-anchor="middle" class="ip">WAN 10.0.2.15  |  LAN 10.10.10.1</text>
  <text x="360" y="238" text-anchor="middle" class="lbl">Stateful filter + explicit LAN allows</text>

  <line x1="360" y1="245" x2="360" y2="285" class="arrow" marker-end="url(#arr)"/>
  <text x="365" y="270" class="lbl">em1 (LAN)</text>

  <!-- LAN container -->
  <rect x="40" y="285" width="640" height="270" rx="12" class="net"/>
  <text x="60" y="308" class="h" fill="#0E6027">vboxnet1  |  10.10.10.0/24  |  isolated host-only LAN</text>

  <!-- siem VM -->
  <rect x="80" y="340" width="240" height="120" rx="8" class="siem"/>
  <text x="200" y="365" text-anchor="middle" class="h">siem</text>
  <text x="200" y="382" text-anchor="middle" class="ip">10.10.10.10</text>
  <text x="200" y="402" text-anchor="middle" class="lbl">Ubuntu 22.04  |  7 GB RAM</text>
  <text x="200" y="420" text-anchor="middle" class="lbl">Wazuh Manager + Indexer</text>
  <text x="200" y="437" text-anchor="middle" class="lbl">+ Dashboard (Docker)</text>
  <text x="200" y="454" text-anchor="middle" class="lbl">3 custom detection rules</text>

  <!-- win-ep VM -->
  <rect x="400" y="340" width="240" height="120" rx="8" class="ep"/>
  <text x="520" y="365" text-anchor="middle" class="h">win-ep</text>
  <text x="520" y="382" text-anchor="middle" class="ip">10.10.10.20</text>
  <text x="520" y="402" text-anchor="middle" class="lbl">Windows 10  |  2 GB RAM</text>
  <text x="520" y="420" text-anchor="middle" class="lbl">Sysmon + PS 4104 + Defender</text>
  <text x="520" y="437" text-anchor="middle" class="lbl">3 ASR rules (block mode)</text>
  <text x="520" y="454" text-anchor="middle" class="lbl">Wazuh agent (Active)</text>

  <!-- Wazuh agent traffic arrow -->
  <line x1="400" y1="400" x2="320" y2="400" class="arrow" marker-end="url(#arr)"/>
  <text x="360" y="392" text-anchor="middle" class="lbl">Wazuh comms</text>
  <text x="360" y="415" text-anchor="middle" class="ip">tcp/1514, 1515, 55000</text>

  <!-- ThinkPad analyst -->
  <rect x="240" y="490" width="240" height="55" rx="6" class="box"/>
  <text x="360" y="512" text-anchor="middle" class="h">ThinkPad on LAN</text>
  <text x="360" y="530" text-anchor="middle" class="ip">10.10.10.2  |  Dashboard access via 443</text>

  <text x="360" y="580" text-anchor="middle" class="lbl">Snapshots: pfsense@phase4-baseline, siem@phase4-migrated-to-lan, win-ep@phase4-migrated-to-lan</text>
</svg>
